<mxfile host="app.diagrams.net" agent="Mozilla/5.0 (Macintosh; Intel Mac OS X 10_15_7) AppleWebKit/537.36 (KHTML, like Gecko) Chrome/132.0.0.0 Safari/537.36" version="24.8.2">
  <diagram name="Page-1" id="tL4ynh3ONn1C_TDeTeHd">
    <mxGraphModel dx="794" dy="678" grid="1" gridSize="10" guides="1" tooltips="1" connect="1" arrows="1" fold="1" page="1" pageScale="1" pageWidth="850" pageHeight="1100" math="0" shadow="0">
      <root>
        <mxCell id="0" />
        <mxCell id="1" parent="0" />
        <mxCell id="ldLSEwPyGGo2iAvo_EIb-1" value="1:2" style="ellipse;whiteSpace=wrap;html=1;" vertex="1" parent="1">
          <mxGeometry x="310" y="80" width="60" height="40" as="geometry" />
        </mxCell>
        <mxCell id="ldLSEwPyGGo2iAvo_EIb-2" value="2:3" style="ellipse;whiteSpace=wrap;html=1;" vertex="1" parent="1">
          <mxGeometry x="220" y="130" width="60" height="40" as="geometry" />
        </mxCell>
        <mxCell id="ldLSEwPyGGo2iAvo_EIb-3" value="1:3" style="ellipse;whiteSpace=wrap;html=1;" vertex="1" parent="1">
          <mxGeometry x="400" y="130" width="60" height="40" as="geometry" />
        </mxCell>
        <mxCell id="ldLSEwPyGGo2iAvo_EIb-4" value="2:3" style="ellipse;whiteSpace=wrap;html=1;" vertex="1" parent="1">
          <mxGeometry x="550" y="210" width="60" height="40" as="geometry" />
        </mxCell>
        <mxCell id="ldLSEwPyGGo2iAvo_EIb-5" value="1:3" style="ellipse;whiteSpace=wrap;html=1;" vertex="1" parent="1">
          <mxGeometry x="280" y="210" width="60" height="40" as="geometry" />
        </mxCell>
        <mxCell id="ldLSEwPyGGo2iAvo_EIb-7" value="&amp;lt;1,2,3&amp;gt;" style="rounded=0;whiteSpace=wrap;html=1;" vertex="1" parent="1">
          <mxGeometry x="100" y="200" width="100" height="50" as="geometry" />
        </mxCell>
        <mxCell id="ldLSEwPyGGo2iAvo_EIb-8" value="&amp;lt;1,3,2&amp;gt;" style="rounded=0;whiteSpace=wrap;html=1;" vertex="1" parent="1">
          <mxGeometry x="170" y="290" width="100" height="50" as="geometry" />
        </mxCell>
        <mxCell id="ldLSEwPyGGo2iAvo_EIb-9" value="&amp;lt;3,1,2&amp;gt;" style="rounded=0;whiteSpace=wrap;html=1;" vertex="1" parent="1">
          <mxGeometry x="340" y="290" width="100" height="50" as="geometry" />
        </mxCell>
        <mxCell id="ldLSEwPyGGo2iAvo_EIb-10" value="&amp;lt;2,1,3&amp;gt;" style="rounded=0;whiteSpace=wrap;html=1;" vertex="1" parent="1">
          <mxGeometry x="380" y="205" width="100" height="50" as="geometry" />
        </mxCell>
        <mxCell id="ldLSEwPyGGo2iAvo_EIb-11" value="&amp;lt;2,3,1&amp;gt;" style="rounded=0;whiteSpace=wrap;html=1;" vertex="1" parent="1">
          <mxGeometry x="500" y="290" width="100" height="50" as="geometry" />
        </mxCell>
        <mxCell id="ldLSEwPyGGo2iAvo_EIb-12" value="&amp;lt;3,2,1&amp;gt;" style="rounded=0;whiteSpace=wrap;html=1;" vertex="1" parent="1">
          <mxGeometry x="660" y="290" width="100" height="50" as="geometry" />
        </mxCell>
        <mxCell id="ldLSEwPyGGo2iAvo_EIb-14" value="" style="endArrow=none;html=1;rounded=0;exitX=1;exitY=0;exitDx=0;exitDy=0;entryX=0;entryY=1;entryDx=0;entryDy=0;" edge="1" parent="1" source="ldLSEwPyGGo2iAvo_EIb-2" target="ldLSEwPyGGo2iAvo_EIb-1">
          <mxGeometry width="50" height="50" relative="1" as="geometry">
            <mxPoint x="380" y="380" as="sourcePoint" />
            <mxPoint x="430" y="330" as="targetPoint" />
          </mxGeometry>
        </mxCell>
        <mxCell id="ldLSEwPyGGo2iAvo_EIb-15" value="" style="endArrow=none;html=1;rounded=0;exitX=0;exitY=0;exitDx=0;exitDy=0;" edge="1" parent="1" source="ldLSEwPyGGo2iAvo_EIb-3">
          <mxGeometry width="50" height="50" relative="1" as="geometry">
            <mxPoint x="281" y="146" as="sourcePoint" />
            <mxPoint x="360" y="110" as="targetPoint" />
          </mxGeometry>
        </mxCell>
        <mxCell id="ldLSEwPyGGo2iAvo_EIb-16" value="" style="endArrow=none;html=1;rounded=0;exitX=0;exitY=0;exitDx=0;exitDy=0;entryX=1;entryY=1;entryDx=0;entryDy=0;" edge="1" parent="1" source="ldLSEwPyGGo2iAvo_EIb-4" target="ldLSEwPyGGo2iAvo_EIb-3">
          <mxGeometry width="50" height="50" relative="1" as="geometry">
            <mxPoint x="419" y="146" as="sourcePoint" />
            <mxPoint x="380" y="110" as="targetPoint" />
          </mxGeometry>
        </mxCell>
        <mxCell id="ldLSEwPyGGo2iAvo_EIb-17" value="" style="endArrow=none;html=1;rounded=0;exitX=0.5;exitY=0;exitDx=0;exitDy=0;entryX=0.5;entryY=1;entryDx=0;entryDy=0;" edge="1" parent="1" source="ldLSEwPyGGo2iAvo_EIb-10" target="ldLSEwPyGGo2iAvo_EIb-3">
          <mxGeometry width="50" height="50" relative="1" as="geometry">
            <mxPoint x="569" y="226" as="sourcePoint" />
            <mxPoint x="461" y="174" as="targetPoint" />
          </mxGeometry>
        </mxCell>
        <mxCell id="ldLSEwPyGGo2iAvo_EIb-18" value="" style="endArrow=none;html=1;rounded=0;entryX=0.5;entryY=0;entryDx=0;entryDy=0;exitX=0;exitY=1;exitDx=0;exitDy=0;" edge="1" parent="1" source="ldLSEwPyGGo2iAvo_EIb-4" target="ldLSEwPyGGo2iAvo_EIb-11">
          <mxGeometry width="50" height="50" relative="1" as="geometry">
            <mxPoint x="580" y="250" as="sourcePoint" />
            <mxPoint x="461" y="174" as="targetPoint" />
          </mxGeometry>
        </mxCell>
        <mxCell id="ldLSEwPyGGo2iAvo_EIb-19" value="" style="endArrow=none;html=1;rounded=0;exitX=1;exitY=1;exitDx=0;exitDy=0;entryX=0.25;entryY=0;entryDx=0;entryDy=0;" edge="1" parent="1" source="ldLSEwPyGGo2iAvo_EIb-4" target="ldLSEwPyGGo2iAvo_EIb-12">
          <mxGeometry width="50" height="50" relative="1" as="geometry">
            <mxPoint x="590" y="260" as="sourcePoint" />
            <mxPoint x="560" y="300" as="targetPoint" />
          </mxGeometry>
        </mxCell>
        <mxCell id="ldLSEwPyGGo2iAvo_EIb-20" value="" style="endArrow=none;html=1;rounded=0;exitX=1;exitY=1;exitDx=0;exitDy=0;entryX=0.5;entryY=0;entryDx=0;entryDy=0;" edge="1" parent="1" source="ldLSEwPyGGo2iAvo_EIb-2" target="ldLSEwPyGGo2iAvo_EIb-5">
          <mxGeometry width="50" height="50" relative="1" as="geometry">
            <mxPoint x="281" y="146" as="sourcePoint" />
            <mxPoint x="329" y="124" as="targetPoint" />
          </mxGeometry>
        </mxCell>
        <mxCell id="ldLSEwPyGGo2iAvo_EIb-21" value="" style="endArrow=none;html=1;rounded=0;exitX=0;exitY=1;exitDx=0;exitDy=0;entryX=0.75;entryY=0;entryDx=0;entryDy=0;" edge="1" parent="1" source="ldLSEwPyGGo2iAvo_EIb-2" target="ldLSEwPyGGo2iAvo_EIb-7">
          <mxGeometry width="50" height="50" relative="1" as="geometry">
            <mxPoint x="281" y="174" as="sourcePoint" />
            <mxPoint x="299" y="226" as="targetPoint" />
          </mxGeometry>
        </mxCell>
        <mxCell id="ldLSEwPyGGo2iAvo_EIb-22" value="" style="endArrow=none;html=1;rounded=0;exitX=0;exitY=1;exitDx=0;exitDy=0;entryX=0.5;entryY=0;entryDx=0;entryDy=0;" edge="1" parent="1" source="ldLSEwPyGGo2iAvo_EIb-5" target="ldLSEwPyGGo2iAvo_EIb-8">
          <mxGeometry width="50" height="50" relative="1" as="geometry">
            <mxPoint x="239" y="174" as="sourcePoint" />
            <mxPoint x="185" y="210" as="targetPoint" />
          </mxGeometry>
        </mxCell>
        <mxCell id="ldLSEwPyGGo2iAvo_EIb-23" value="" style="endArrow=none;html=1;rounded=0;exitX=1;exitY=1;exitDx=0;exitDy=0;entryX=0.25;entryY=0;entryDx=0;entryDy=0;" edge="1" parent="1" source="ldLSEwPyGGo2iAvo_EIb-5" target="ldLSEwPyGGo2iAvo_EIb-9">
          <mxGeometry width="50" height="50" relative="1" as="geometry">
            <mxPoint x="299" y="254" as="sourcePoint" />
            <mxPoint x="230" y="300" as="targetPoint" />
          </mxGeometry>
        </mxCell>
        <mxCell id="ldLSEwPyGGo2iAvo_EIb-25" value="&amp;lt;=" style="text;html=1;align=center;verticalAlign=middle;whiteSpace=wrap;rounded=0;fontFamily=Fira Code;fontSource=https%3A%2F%2Ffonts.googleapis.com%2Fcss%3Ffamily%3DFira%2BCode;" vertex="1" parent="1">
          <mxGeometry x="250" y="100" width="60" height="30" as="geometry" />
        </mxCell>
        <mxCell id="ldLSEwPyGGo2iAvo_EIb-26" value="&amp;gt;" style="text;html=1;align=center;verticalAlign=middle;whiteSpace=wrap;rounded=0;fontFamily=Fira Code;fontSource=https%3A%2F%2Ffonts.googleapis.com%2Fcss%3Ffamily%3DFira%2BCode;" vertex="1" parent="1">
          <mxGeometry x="630" y="250" width="60" height="30" as="geometry" />
        </mxCell>
        <mxCell id="ldLSEwPyGGo2iAvo_EIb-27" value="&amp;gt;" style="text;html=1;align=center;verticalAlign=middle;whiteSpace=wrap;rounded=0;fontFamily=Fira Code;fontSource=https%3A%2F%2Ffonts.googleapis.com%2Fcss%3Ffamily%3DFira%2BCode;" vertex="1" parent="1">
          <mxGeometry x="370" y="100" width="60" height="30" as="geometry" />
        </mxCell>
        <mxCell id="ldLSEwPyGGo2iAvo_EIb-28" value="&amp;gt;" style="text;html=1;align=center;verticalAlign=middle;whiteSpace=wrap;rounded=0;fontFamily=Fira Code;fontSource=https%3A%2F%2Ffonts.googleapis.com%2Fcss%3Ffamily%3DFira%2BCode;" vertex="1" parent="1">
          <mxGeometry x="490" y="170" width="60" height="30" as="geometry" />
        </mxCell>
        <mxCell id="ldLSEwPyGGo2iAvo_EIb-29" value="&amp;gt;" style="text;html=1;align=center;verticalAlign=middle;whiteSpace=wrap;rounded=0;fontFamily=Fira Code;fontSource=https%3A%2F%2Ffonts.googleapis.com%2Fcss%3Ffamily%3DFira%2BCode;" vertex="1" parent="1">
          <mxGeometry x="280" y="170" width="60" height="30" as="geometry" />
        </mxCell>
        <mxCell id="ldLSEwPyGGo2iAvo_EIb-30" value="&amp;lt;=" style="text;html=1;align=center;verticalAlign=middle;whiteSpace=wrap;rounded=0;fontFamily=Fira Code;fontSource=https%3A%2F%2Ffonts.googleapis.com%2Fcss%3Ffamily%3DFira%2BCode;" vertex="1" parent="1">
          <mxGeometry x="160" y="150" width="60" height="30" as="geometry" />
        </mxCell>
        <mxCell id="ldLSEwPyGGo2iAvo_EIb-31" value="&amp;lt;=" style="text;html=1;align=center;verticalAlign=middle;whiteSpace=wrap;rounded=0;fontFamily=Fira Code;fontSource=https%3A%2F%2Ffonts.googleapis.com%2Fcss%3Ffamily%3DFira%2BCode;" vertex="1" parent="1">
          <mxGeometry x="210" y="240" width="60" height="30" as="geometry" />
        </mxCell>
        <mxCell id="ldLSEwPyGGo2iAvo_EIb-32" value="&amp;lt;=" style="text;html=1;align=center;verticalAlign=middle;whiteSpace=wrap;rounded=0;fontFamily=Fira Code;fontSource=https%3A%2F%2Ffonts.googleapis.com%2Fcss%3Ffamily%3DFira%2BCode;" vertex="1" parent="1">
          <mxGeometry x="380" y="170" width="60" height="30" as="geometry" />
        </mxCell>
        <mxCell id="ldLSEwPyGGo2iAvo_EIb-33" value="&amp;lt;=" style="text;html=1;align=center;verticalAlign=middle;whiteSpace=wrap;rounded=0;fontFamily=Fira Code;fontSource=https%3A%2F%2Ffonts.googleapis.com%2Fcss%3Ffamily%3DFira%2BCode;" vertex="1" parent="1">
          <mxGeometry x="500" y="250" width="60" height="30" as="geometry" />
        </mxCell>
        <mxCell id="ldLSEwPyGGo2iAvo_EIb-34" value="&amp;gt;" style="text;html=1;align=center;verticalAlign=middle;whiteSpace=wrap;rounded=0;fontFamily=Fira Code;fontSource=https%3A%2F%2Ffonts.googleapis.com%2Fcss%3Ffamily%3DFira%2BCode;" vertex="1" parent="1">
          <mxGeometry x="340" y="260" width="60" height="30" as="geometry" />
        </mxCell>
      </root>
    </mxGraphModel>
  </diagram>
</mxfile>
